<svg width="50" height="50" viewBox="0 0 50 50" fill="none" xmlns="http://www.w3.org/2000/svg">
<path opacity="0.1" fill-rule="evenodd" clip-rule="evenodd" d="M0 25C0 11.1929 11.1929 0 25 0C38.8071 0 50 11.1929 50 25C50 38.8071 38.8071 50 25 50C11.1929 50 0 38.8071 0 25Z" fill="white"/>
<path d="M24.5036 16.4397C20.0419 16.4397 16.4431 20.0385 16.4431 24.5001C16.4431 28.9617 20.0419 32.5603 24.5036 32.5603C28.9652 32.5603 32.5639 28.9616 32.5639 24.5001C32.5639 20.0385 28.9651 16.4397 24.5036 16.4397ZM24.5036 29.7404C21.6204 29.7404 19.2632 27.3902 19.2632 24.5001C19.2632 21.6099 21.6133 19.2598 24.5036 19.2598C27.3936 19.2598 29.7438 21.6099 29.7438 24.5001C29.7438 27.3902 27.3868 29.7404 24.5036 29.7404ZM34.7736 16.11C34.7736 17.1553 33.9318 17.9901 32.8936 17.9901C31.8482 17.9901 31.0136 17.1483 31.0136 16.11C31.0136 15.0718 31.8553 14.2299 32.8936 14.2299C33.9318 14.2299 34.7736 15.0717 34.7736 16.11ZM40.1121 18.018C39.9929 15.4997 39.4177 13.2688 37.5726 11.4309C35.7347 9.59293 33.5039 9.01768 30.9855 8.89149C28.3899 8.74418 20.6102 8.74418 18.0146 8.89149C15.5031 9.01064 13.2723 9.58595 11.4274 11.4239C9.58235 13.2619 9.01415 15.4927 8.88789 18.011C8.74058 20.6066 8.74058 28.3864 8.88789 30.982C9.00718 33.5005 9.58235 35.7312 11.4274 37.5692C13.2723 39.4072 15.4962 39.9823 18.0146 40.1086C20.6101 40.2559 28.3899 40.2559 30.9855 40.1086C33.504 39.9894 35.7348 39.414 37.5726 37.5692C39.4106 35.7311 39.9859 33.5004 40.1121 30.982C40.2594 28.3865 40.2594 20.6136 40.1121 18.018ZM36.7588 33.767C36.2117 35.1419 35.1524 36.2013 33.7704 36.7554C31.701 37.5764 26.7904 37.3868 24.5035 37.3868C22.2165 37.3868 17.2989 37.5693 15.2365 36.7554C13.8615 36.2082 12.8021 35.1491 12.248 33.767C11.4274 31.6976 11.6169 26.787 11.6169 24.5001C11.6169 22.2131 11.4344 17.2956 12.2481 15.2331C12.7954 13.8581 13.8545 12.7988 15.2366 12.2447C17.306 11.4239 22.2165 11.6134 24.5036 11.6134C26.7904 11.6134 31.708 11.431 33.7705 12.2447C35.1454 12.7917 36.2047 13.8512 36.7589 15.2331C37.5797 17.3025 37.3903 22.2131 37.3903 24.5001C37.3903 26.787 37.5796 31.7046 36.7588 33.767Z" fill="white"/>
</svg>
