<svg width="50" height="50" viewBox="0 0 50 50" fill="none" xmlns="http://www.w3.org/2000/svg">
<path opacity="0.1" fill-rule="evenodd" clip-rule="evenodd" d="M0 25C0 11.1929 11.1929 0 25 0C38.8071 0 50 11.1929 50 25C50 38.8071 38.8071 50 25 50C11.1929 50 0 38.8071 0 25Z" fill="white"/>
<path d="M40.3347 18.237C40.2155 15.7187 39.6403 13.4878 37.7952 11.6499C35.9573 9.81192 33.7265 9.23668 31.2081 9.11049C28.6125 8.96317 20.8328 8.96317 18.2371 9.11049C15.7257 9.22964 13.4949 9.80495 11.65 11.6429C9.80495 13.4809 9.23675 15.7117 9.11049 18.23C8.96317 20.8256 8.96317 28.6054 9.11049 31.201C9.22977 33.7195 9.80495 35.9501 11.65 37.7882C13.4949 39.6262 15.7188 40.2013 18.2371 40.3276C20.8327 40.4748 28.6125 40.4748 31.2081 40.3276C33.7266 40.2084 35.9574 39.633 37.7952 37.7882C39.6332 35.9501 40.2085 33.7194 40.3347 31.201C40.482 28.6055 40.482 20.8326 40.3347 18.237ZM36.9814 33.986C36.4343 35.3609 35.375 36.4203 33.993 36.9744C31.9236 37.7954 27.013 37.6058 24.7261 37.6058C22.4391 37.6058 17.5215 37.7883 15.4591 36.9744C14.0841 36.4272 13.0247 35.3681 12.4706 33.986C11.65 31.9166 11.8395 27.006 11.8395 24.719C11.8395 22.4321 11.657 17.5146 12.4707 15.4521C13.018 14.0771 14.0771 13.0178 15.4592 12.4637C17.5286 11.6429 22.4391 11.8324 24.7262 11.8324C27.013 11.8324 31.9306 11.65 33.9931 12.4637C35.368 13.0107 36.4273 14.0702 36.9815 15.4521C37.8023 17.5215 37.6129 22.4321 37.6129 24.719C37.6129 27.006 37.8022 31.9236 36.9814 33.986Z" fill="white"/>
<path d="M24.908 33.52C25.604 33.52 26.288 33.448 26.96 33.304C27.64 33.168 28.288 32.956 28.904 32.668L28.22 30.796C27.252 31.268 26.184 31.504 25.016 31.504C23.68 31.504 22.492 31.228 21.452 30.676C20.42 30.124 19.604 29.344 19.004 28.336C18.412 27.32 18.1 26.12 18.068 24.736C18.036 23.336 18.292 22.096 18.836 21.016C19.38 19.936 20.176 19.088 21.224 18.472C22.272 17.848 23.54 17.536 25.028 17.536C25.82 17.536 26.616 17.656 27.416 17.896C28.216 18.128 28.948 18.504 29.612 19.024C30.284 19.544 30.816 20.232 31.208 21.088C31.6 21.936 31.784 22.98 31.76 24.22C31.744 25.012 31.628 25.664 31.412 26.176C31.204 26.688 30.784 26.944 30.152 26.944C29.2 26.944 28.724 26.324 28.724 25.084L28.76 20.776H27.152V21.208C26.816 20.96 26.424 20.772 25.976 20.644C25.528 20.508 25.104 20.44 24.704 20.44C23.928 20.44 23.224 20.612 22.592 20.956C21.968 21.292 21.472 21.776 21.104 22.408C20.736 23.032 20.552 23.776 20.552 24.64C20.552 25.472 20.724 26.204 21.068 26.836C21.42 27.46 21.904 27.948 22.52 28.3C23.144 28.652 23.86 28.828 24.668 28.828C25.164 28.828 25.648 28.748 26.12 28.588C26.6 28.42 27.016 28.132 27.368 27.724C27.656 28.132 28.044 28.444 28.532 28.66C29.028 28.868 29.556 28.972 30.116 28.972C31.396 28.972 32.34 28.56 32.948 27.736C33.556 26.904 33.88 25.712 33.92 24.16C33.952 23.032 33.784 21.952 33.416 20.92C33.048 19.88 32.484 18.956 31.724 18.148C30.964 17.332 30.012 16.692 28.868 16.228C27.724 15.756 26.392 15.52 24.872 15.52C23.216 15.52 21.708 15.88 20.348 16.6C18.996 17.312 17.92 18.36 17.12 19.744C16.32 21.12 15.92 22.804 15.92 24.796C15.92 26.052 16.14 27.212 16.58 28.276C17.02 29.332 17.644 30.252 18.452 31.036C19.26 31.82 20.212 32.428 21.308 32.86C22.404 33.3 23.604 33.52 24.908 33.52ZM24.812 26.788C24.14 26.788 23.62 26.6 23.252 26.224C22.884 25.84 22.7 25.308 22.7 24.628C22.7 23.964 22.88 23.44 23.24 23.056C23.6 22.664 24.144 22.468 24.872 22.468C25.488 22.468 25.964 22.652 26.3 23.02C26.644 23.38 26.816 23.916 26.816 24.628C26.816 25.412 26.624 25.968 26.24 26.296C25.856 26.624 25.38 26.788 24.812 26.788Z" fill="white"/>
</svg>
