<svg width="50" height="50" viewBox="0 0 50 50" fill="none" xmlns="http://www.w3.org/2000/svg">
<path opacity="0.1" fill-rule="evenodd" clip-rule="evenodd" d="M0 25C0 11.1929 11.1929 0 25 0C38.8071 0 50 11.1929 50 25C50 38.8071 38.8071 50 25 50C11.1929 50 0 38.8071 0 25Z" fill="white"/>
<path d="M40.112 18.018C39.9929 15.4997 39.4176 13.2688 37.5726 11.4309C35.7347 9.59293 33.5039 9.01768 30.9855 8.89149C28.3898 8.74418 20.6101 8.74418 18.0145 8.89149C15.5031 9.01064 13.2723 9.58595 11.4273 11.4239C9.58232 13.2619 9.01412 15.4927 8.88786 18.011C8.74055 20.6066 8.74055 28.3864 8.88786 30.982C9.00715 33.5005 9.58232 35.7312 11.4273 37.5692C13.2723 39.4072 15.4962 39.9823 18.0145 40.1086C20.6101 40.2559 28.3898 40.2559 30.9855 40.1086C33.5039 39.9894 35.7348 39.414 37.5726 37.5692C39.4106 35.7311 39.9858 33.5004 40.112 30.982C40.2594 28.3865 40.2594 20.6136 40.112 18.018ZM36.7588 33.767C36.2117 35.1419 35.1524 36.2013 33.7704 36.7554C31.701 37.5764 26.7904 37.3868 24.5035 37.3868C22.2164 37.3868 17.2989 37.5693 15.2365 36.7554C13.8615 36.2082 12.8021 35.1491 12.248 33.767C11.4273 31.6976 11.6168 26.787 11.6168 24.5001C11.6168 22.2131 11.4344 17.2956 12.2481 15.2331C12.7954 13.8581 13.8545 12.7988 15.2365 12.2447C17.306 11.4239 22.2165 11.6134 24.5035 11.6134C26.7904 11.6134 31.708 11.431 33.7705 12.2447C35.1454 12.7917 36.2047 13.8512 36.7589 15.2331C37.5797 17.3025 37.3903 22.2131 37.3903 24.5001C37.3903 26.787 37.5796 31.7046 36.7588 33.767Z" fill="white"/>
<path d="M30.8202 27.0116C31.1784 27.1896 31.4177 27.279 31.5078 27.4272C31.597 27.5756 31.597 28.2887 31.2984 29.1207C30.9985 29.9521 29.5332 30.754 28.8761 30.8133C28.2181 30.8727 28.2181 31.3482 24.5688 29.9226C20.9208 28.4968 18.6182 24.7842 18.4389 24.547L18.4383 24.5462C18.2562 24.306 16.9737 22.6149 16.9737 20.8646C16.9737 19.1127 17.9005 18.2511 18.2292 17.8946C18.5582 17.5384 18.9472 17.4492 19.1865 17.4492C19.4257 17.4492 19.665 17.479 19.8744 17.479C20.0841 17.479 20.3827 17.3604 20.6816 18.0728C20.9805 18.7859 21.6985 20.5382 21.7883 20.7161C21.8781 20.8947 21.9381 21.1025 21.8182 21.3401C21.6989 21.578 21.6392 21.7261 21.4596 21.9342C21.28 22.142 21.0825 22.3981 20.9212 22.5578C20.7416 22.7351 20.5544 22.9276 20.7638 23.2838C20.9729 23.6407 21.6932 24.8058 22.7599 25.7495C24.1311 26.9626 25.2875 27.3387 25.646 27.5166C26.0049 27.6949 26.214 27.6651 26.4234 27.4272C26.6332 27.1896 27.3211 26.388 27.56 26.0315C27.7989 25.6749 28.0385 25.7349 28.3678 25.8535C28.6962 25.9718 30.461 26.8337 30.8202 27.0116Z" fill="white"/>
</svg>
