<svg width="37" height="37" viewBox="0 0 37 37" fill="none" xmlns="http://www.w3.org/2000/svg">
<path d="M18.5039 9.51831C13.5323 9.51831 9.52225 13.5285 9.52225 18.4999C9.52225 23.4714 13.5323 27.4813 18.5039 27.4813C23.4754 27.4813 27.4854 23.4713 27.4854 18.4999C27.4854 13.5285 23.4753 9.51831 18.5039 9.51831ZM18.5039 24.3391C15.2912 24.3391 12.6646 21.7204 12.6646 18.4999C12.6646 15.2794 15.2833 12.6608 18.5039 12.6608C21.7242 12.6608 24.343 15.2794 24.343 18.4999C24.343 21.7204 21.7166 24.3391 18.5039 24.3391ZM29.9477 9.15101C29.9477 10.3158 29.0096 11.2459 27.8528 11.2459C26.688 11.2459 25.7579 10.3079 25.7579 9.15101C25.7579 7.99411 26.6958 7.05605 27.8528 7.05605C29.0096 7.05605 29.9477 7.99403 29.9477 9.15101ZM35.8962 11.277C35.7635 8.47094 35.1225 5.98508 33.0666 3.93712C31.0186 1.88909 28.5328 1.2481 25.7267 1.10749C22.8343 0.943337 14.1655 0.943337 11.2733 1.10749C8.47481 1.24026 5.98909 1.88132 3.93329 3.92935C1.87741 5.97738 1.24427 8.4631 1.10358 11.2693C0.939431 14.1614 0.939431 22.8304 1.10358 25.7226C1.2365 28.529 1.87741 31.0145 3.93329 33.0626C5.98909 35.1107 8.46712 35.7516 11.2733 35.8923C14.1655 36.0563 22.8343 36.0563 25.7267 35.8923C28.5329 35.7594 31.0187 35.1183 33.0666 33.0626C35.1146 31.0145 35.7556 28.5289 35.8962 25.7226C36.0605 22.8305 36.0605 14.1693 35.8962 11.277ZM32.1598 28.826C31.5501 30.3579 30.3697 31.5384 28.8298 32.1559C26.5239 33.0706 21.0521 32.8594 18.5038 32.8594C15.9554 32.8594 10.4758 33.0627 8.17774 32.1559C6.64562 31.5461 5.46518 30.366 4.84773 28.826C3.93329 26.52 4.14444 21.0482 4.14444 18.4999C4.14444 15.9516 3.94114 10.4721 4.84781 8.17387C5.45764 6.64175 6.63785 5.46139 8.17782 4.84395C10.4838 3.92935 15.9555 4.14042 18.5039 4.14042C21.0521 4.14042 26.5317 3.9372 28.8299 4.84395C30.362 5.45347 31.5423 6.63398 32.1598 8.17387C33.0744 10.4797 32.8634 15.9516 32.8634 18.4999C32.8634 21.0482 33.0744 26.5278 32.1598 28.826Z" fill="#18191F"/>
</svg>
